<?xml version="1.0" encoding="UTF-8"?>
<svg width="752pt" height="752pt" version="1.1" viewBox="0 0 752 752" xmlns="http://www.w3.org/2000/svg">
 <g>
  <path d="m392.84 504.25h-31.309-68.492-67.523-21.738-5.7344-1.3398-0.27734c-0.23047 0-0.64844-0.32422-0.64844 0 0-0.23047 3.0977 0.73828 1.25 0.14062-0.41797-0.09375-0.78516-0.18359-1.1562-0.32422 0.55469 0.23047 1.1094 0.46094 1.6641 0.69531-0.18359-0.18359-1.2969-0.83203-1.5273-0.87891 0.27734 0.046875 2.082 1.9883 0.97266 0.69531-2.0352-2.3125 1.3867 2.1289-0.32422-0.46094-0.97266-1.4336 0.50781 0.83203 0.46094 1.1094 0.09375-0.50781-0.55469-1.2031-0.46094-1.7578 0 0 0.14062 3.1914 0.27734 1.2031v-0.50781-3.1914-14.012-52.074-70.25-72.426-58.688c0-9.5273-0.046876-19.008 0-28.535v-0.64844c-0.09375-2.2188-0.69531 2.082-0.18359 0.87891 0.14062-0.32422 0.41797-1.1562 0.37109-1.4805 0.09375 1.7109-1.1094 2.1719-0.46094 1.1094 0.09375-0.18359 0.18359-0.32422 0.27734-0.50781 0.64844-0.97266 0.41797-0.69531-0.78516 0.92578 0.18359-0.14062 1.1094-1.0625 1.25-1.25-0.87891 1.4336-1.9883 1.4336-0.64844 0.60156 1.4336-0.87891 0.69531 0.41797-0.87891 0.27734 0.18359 0 0.92578-0.23047 1.1562-0.32422 2.1289-0.69531-2.8672 0-0.60156 0.14062h0.09375 0.69531 9.4336 44.305 66.414 73.859 66.414 44.77 9.7578 0.78516 0.14062c1.9883-0.09375-1.2031-0.27734-1.2031-0.27734 0.55469-0.09375 1.25 0.55469 1.7578 0.46094-0.55469-0.23047-1.1094-0.46094-1.6641-0.69531 0.37109 0.18359 0.69531 0.37109 1.0625 0.55469 1.5273 0.69531-0.78516-0.50781-0.92578-0.78516 0.09375 0.23047 1.0156 1.1562 1.25 1.25-0.27734-0.14062-1.4805-2.4062-0.78516-0.92578 0.14062 0.32422 1.1562 2.1289 0.18359 0.23047-0.87891-1.8516-0.18359-0.09375-0.046875 0.32422 0.60156 1.8516-0.37109-1.2031-0.14062-1.25-0.18359 0 0.046875 0.46094 0 0.69531v0.92578 42.086 71.637 56.652 8.7422c0 6.0586 5.3203 11.84 11.562 11.562 6.2422-0.27734 11.562-5.0859 11.562-11.562v-34.133-70.852-61.879c0-4.2539 0.046875-8.5547 0-12.812-0.09375-13.133-10.5-23.031-23.492-23.078-9.5273-0.046875-19.055 0-28.535 0h-57.996-73.027-72.191-57.164c-8.7891 0-17.621-0.046875-26.406 0-12.996 0.09375-23.031 10.312-23.125 23.262v9.2969 45.926 68.402 74.184 63.312 35.75 2.6836c0.14062 8.3242 4.4844 16.465 12.117 20.305 5.7344 2.8672 11.285 2.6367 17.344 2.6367h53.047 73.488 54.852 8.2305c6.0586 0 11.84-5.3203 11.562-11.562-0.28906-6.207-5.1016-11.527-11.574-11.527z"/>
  <path d="m392.84 504.25h-33.762-72.516-67.984-18.777c-1.0625 0-2.1719-0.046875-3.2383 0-2.2656 0.09375 2.5898 0.78516 0.55469 0.14062-0.23047-0.09375-0.97266-0.32422-1.1562-0.32422 0.55469 0.23047 1.1094 0.46094 1.6641 0.69531-0.37109-0.18359-0.69531-0.37109-1.0625-0.55469-1.0156-0.50781-0.23047-0.97266 0.92578 0.78516-0.27734-0.27734-0.60156-0.50781-0.83203-0.83203-0.78516-0.87891-0.55469-0.55469 0.69531 0.97266-0.046875-0.23047-0.50781-0.83203-0.60156-1.0156-1.1562-1.8047 0.60156 2.6836 0.27734 0.55469-0.046876-0.32422-0.14063-0.92578-0.27734-1.2031 0.60156 1.3867 0.18359 2.6836 0.27734 1.2031v-0.60156c-0.14063-19.703 0-39.449 0-59.152v-1.8945c-1.1094 2.7305-2.2656 5.457-3.375 8.1875 16-15.863 32.004-31.727 48.004-47.59 2.2656-2.2188 4.4844-4.4414 6.7539-6.6602h-16.371c7.0742 7.0312 14.105 14.012 21.184 21.043 11.238 11.145 22.477 22.336 33.715 33.484 2.5898 2.543 5.1328 5.1328 7.7227 7.6758 4.4414 4.3945 11.887 4.4414 16.371 0 5.1328-5.1328 10.312-10.266 15.445-15.402 12.395-12.301 24.742-24.648 37.137-36.953 14.984-14.891 29.969-29.828 44.953-44.723 12.949-12.902 25.898-25.762 38.848-38.664 6.2891-6.2422 12.812-12.301 18.871-18.777l0.27734-0.27734h-16.371c7.4453 7.3984 14.891 14.754 22.383 22.152 11.84 11.699 23.633 23.402 35.473 35.102 2.7305 2.6836 5.457 5.4102 8.1875 8.0938-1.1094-2.7305-2.2656-5.457-3.375-8.1875v22.848c0 6.0586 5.3203 11.84 11.562 11.562 6.2422-0.27734 11.562-5.0859 11.562-11.562 0-7.5859 0.27734-15.215 0-22.801-0.18359-4.7188-2.5898-7.3984-5.5977-10.359-2.3125-2.2656-4.625-4.5781-6.9375-6.8438-14.844-14.707-29.691-29.414-44.582-44.121-4.1172-4.0703-8.2305-8.1406-12.348-12.211-4.4414-4.3945-11.887-4.4414-16.371 0-5.1328 5.1328-10.312 10.266-15.445 15.402-12.395 12.301-24.742 24.648-37.137 36.953-14.984 14.891-29.969 29.828-44.953 44.723-12.949 12.902-25.898 25.762-38.848 38.664-6.2891 6.2422-12.812 12.301-18.871 18.777-0.09375 0.09375-0.18359 0.18359-0.27734 0.27734h16.371c-7.0742-7.0312-14.105-14.012-21.184-21.043-11.238-11.145-22.477-22.336-33.715-33.484-2.5898-2.543-5.1328-5.1328-7.7227-7.6758-4.4414-4.3945-11.887-4.3945-16.371 0-7.4453 7.3516-14.891 14.754-22.336 22.105-10.035 9.9414-20.07 19.887-30.109 29.828-0.73828 0.73828-1.5273 1.4805-2.2656 2.2656-2.7734 2.9609-3.4219 6.3828-3.4219 10.082v18.035 40.789c0 12.902 9.6641 23.355 22.754 23.633 1.6641 0.046874 3.2852 0 4.9492 0h29.691 46.016 50.227 42.133 22.293 1.0156c6.0586 0 11.84-5.3203 11.562-11.562-0.37891-6.2383-5.1914-11.559-11.664-11.559z"/>
  <path d="m294.56 273.7c0 0.64844 0 1.2969-0.046875 1.9414 0 0.32422-0.046875 0.64844-0.09375 0.97266-0.09375 1.4805 0.46094-2.6367 0.14062-1.2031-0.27734 1.3398-0.55469 2.6367-0.97266 3.9766-0.18359 0.60156-0.46094 1.1562-0.60156 1.7578 0.92578-3.1914 0.50781-1.1562 0.046875-0.23047-0.60156 1.2031-1.3398 2.2656-2.0352 3.4219-0.97266 1.5742 1.8945-2.1289 0.14062-0.18359-0.41797 0.46094-0.78516 0.92578-1.2031 1.3398-0.92578 0.92578-1.9883 1.7109-2.9141 2.6367 0.09375-0.14062 2.4062-1.6641 0.87891-0.73828-0.27734 0.14062-0.50781 0.32422-0.73828 0.50781-0.50781 0.32422-1.0156 0.64844-1.5742 0.92578-0.55469 0.27734-1.0625 0.55469-1.6172 0.83203-2.2656 1.1562 2.3594-0.83203-0.09375 0-1.1562 0.41797-2.3594 0.73828-3.6055 1.0156-0.46094 0.09375-2.7305 0.46094-0.64844 0.18359 2.082-0.27734-0.73828 0-1.3398 0.046875-1.2969 0.046875-2.5898-0.046875-3.8867-0.14062-1.25-0.046875 1.6172 0.23047 1.4805 0.23047-0.27734-0.09375-0.64844-0.09375-0.92578-0.18359-0.83203-0.14062-1.6172-0.37109-2.4492-0.55469-0.60156-0.18359-1.2031-0.37109-1.7578-0.55469-0.27734-0.09375-0.55469-0.23047-0.87891-0.32422-0.09375 0 2.3594 1.1562 1.3398 0.55469-1.2031-0.73828-2.543-1.2969-3.7461-2.0352-0.41797-0.27734-2.1289-1.5742-0.55469-0.32422 1.5742 1.25-0.14062-0.14062-0.46094-0.41797-1.0625-0.92578-2.0352-1.9883-2.9609-3.0078-0.18359-0.23047-0.37109-0.50781-0.55469-0.69531-0.046875-0.046875 1.4336 2.1289 0.87891 1.1094-0.32422-0.60156-0.78516-1.1562-1.1562-1.7578-0.32422-0.50781-0.60156-1.0625-0.87891-1.6172-0.23047-0.46094-1.25-2.7305-0.46094-0.83203 0.78516 1.8516-0.046875-0.18359-0.18359-0.64844-0.23047-0.69531-0.41797-1.3867-0.60156-2.082-0.14063-0.60156-0.27734-1.25-0.37109-1.8516-0.37109-1.8516 0.23047 2.7734 0.046875 0.23047-0.09375-1.3867-0.14062-2.8203-0.046875-4.207 0-0.32422 0.046875-0.64844 0.09375-0.97266 0.046875-1.25-0.23047 1.6172-0.23047 1.4805 0.18359-0.69531 0.27734-1.4336 0.41797-2.1719 0.32422-1.2969 0.87891-2.543 1.2031-3.8398 0.046875-0.09375-1.1562 2.4062-0.55469 1.3398 0.14062-0.27734 0.27734-0.55469 0.37109-0.83203 0.37109-0.73828 0.73828-1.4336 1.1562-2.1289 0.32422-0.50781 0.69531-1.0156 0.97266-1.5273 1.0156-1.6641-1.6172 1.8516-0.32422 0.41797 0.92578-1.0625 1.8945-2.1289 2.9141-3.0508 0.46094-0.41797 0.97266-0.73828 1.3867-1.1562 0.046875-0.046874-2.1289 1.4336-1.1094 0.87891 0.27734-0.14062 0.50781-0.37109 0.73828-0.50781 1.2031-0.78516 2.4492-1.4336 3.6992-2.082 1.7578-0.92578-2.3594 0.83203-0.50781 0.23047 0.60156-0.18359 1.1562-0.41797 1.7578-0.60156 0.69531-0.18359 1.3867-0.37109 2.1289-0.55469 0.32422-0.046875 0.60156-0.14062 0.92578-0.18359 1.5742-0.32422-0.83203 0.14062-1.2031 0.14062 1.2969 0 2.5898-0.18359 3.8867-0.18359 0.73828 0 1.4805 0.09375 2.2656 0.14062 1.25 0.046875-1.6172-0.23047-1.4805-0.23047 0.41797 0.09375 0.83203 0.14062 1.25 0.23047 1.5273 0.32422 3.0078 0.83203 4.4844 1.2969 1.1562 0.37109-1.4336-0.64844-1.3398-0.60156 0.32422 0.23047 0.73828 0.32422 1.1094 0.50781 0.64844 0.32422 1.25 0.64844 1.8945 1.0156 0.69531 0.41797 1.3398 0.92578 2.0352 1.3398 1.0156 0.55469-1.1562-0.97266-1.1094-0.87891 0.27734 0.27734 0.64844 0.50781 0.92578 0.78516 1.0625 0.92578 2.082 1.9414 3.0078 3.0078 0.23047 0.27734 0.50781 0.64844 0.78516 0.92578-0.23047-0.23047-1.5273-2.1719-0.73828-0.87891 0.37109 0.60156 0.78516 1.2031 1.1562 1.8047s0.69531 1.25 1.0156 1.8945c0.18359 0.32422 0.32422 0.78516 0.50781 1.1094-0.18359-0.27734-0.97266-2.543-0.46094-1.0625 0.46094 1.3867 0.87891 2.7734 1.2031 4.207 0.09375 0.41797 0.09375 0.83203 0.23047 1.25-0.09375-0.32422-0.27734-2.7734-0.18359-1.1562 0.078125 0.74609 0.125 1.625 0.125 2.5039 0.046875 6.0586 5.2734 11.84 11.562 11.562 6.1953-0.27734 11.656-5.0859 11.562-11.562-0.18359-17.438-11.145-32.234-27.379-38.199-14.984-5.5039-33.438-0.41797-43.566 11.934-10.914 13.227-13.133 32.098-4.0703 47.035 9.0195 14.891 26.223 21.922 43.148 18.73 18.547-3.5156 31.68-20.996 31.863-39.449 0.046874-6.0586-5.3633-11.84-11.562-11.562-6.332 0.22656-11.465 4.9922-11.559 11.512z"/>
  <path d="m493.89 436.31v41.484 65.855 15.168c0 6.0586 5.3203 11.84 11.562 11.562 6.2422-0.27734 11.562-5.0859 11.562-11.562v-41.484-65.855-15.168c0-6.0586-5.3203-11.84-11.562-11.562-6.2891 0.27734-11.562 5.0898-11.562 11.562z"/>
  <path d="m444.22 509.11h41.484 65.855 15.168c6.0586 0 11.84-5.3203 11.562-11.562-0.27734-6.2422-5.0859-11.562-11.562-11.562h-41.484-65.855-15.168c-6.0586 0-11.84 5.3203-11.562 11.562 0.27734 6.2891 5.0859 11.562 11.562 11.562z"/>
 </g>
</svg>
